<svg xmlns="http://www.w3.org/2000/svg" width="986" height="798" viewBox="0 0 986 798" font-family="'Inter', 'Helvetica Neue', Arial, sans-serif">
<defs><filter id="soft" x="-20%" y="-20%" width="140%" height="140%"><feDropShadow dx="0" dy="3" stdDeviation="5" flood-color="#0f172a" flood-opacity="0.16"/></filter><pattern id="wg-grid" width="64" height="64" patternUnits="userSpaceOnUse"><path d="M 64 0 L 0 0 0 64" fill="none" stroke="#26262c" stroke-width="1"/></pattern></defs>
<rect width="986" height="798" fill="#161619"/>
<rect width="986" height="798" fill="url(#wg-grid)"/>
<text x="48" y="44" font-size="22" font-weight="700" fill="#f4f4f5">INMP441 I2S microphone → ESP32-DevKitC V4</text>
<text x="48" y="66" font-size="13" fill="#a1a1aa">I2S MEMS mic on the ESP32's I2S0 peripheral (BCLK IO26 / LRCLK IO25 / DIN IO33)</text>
<path d="M 420.0 385.0 L 413.5 385.0 Q 407.0 385.0 407.0 376.0 L 407.0 125.0 Q 407.0 116.0 398.0 116.0 L 99.0 116.0 Q 90.0 116.0 90.0 125.0 L 90.0 323.5" fill="none" stroke="#161619" stroke-width="6.0" stroke-linecap="round" stroke-linejoin="round"/><path d="M 420.0 385.0 L 413.5 385.0 Q 407.0 385.0 407.0 376.0 L 407.0 125.0 Q 407.0 116.0 398.0 116.0 L 99.0 116.0 Q 90.0 116.0 90.0 125.0 L 90.0 323.5" fill="none" stroke="#f472b6" stroke-width="3.0" stroke-linecap="round" stroke-linejoin="round"/><circle cx="420.0" cy="385.0" r="4.0" fill="#f472b6" stroke="#161619" stroke-width="1.5"/><circle cx="90.0" cy="323.5" r="4.0" fill="#f472b6" stroke="#161619" stroke-width="1.5"/>
<path d="M 420.0 361.0 L 404.0 361.0 Q 395.0 361.0 395.0 352.0 L 395.0 107.0 Q 395.0 98.0 386.0 98.0 L 123.0 98.0 Q 114.0 98.0 114.0 107.0 L 114.0 319.0" fill="none" stroke="#161619" stroke-width="6.0" stroke-linecap="round" stroke-linejoin="round"/><path d="M 420.0 361.0 L 404.0 361.0 Q 395.0 361.0 395.0 352.0 L 395.0 107.0 Q 395.0 98.0 386.0 98.0 L 123.0 98.0 Q 114.0 98.0 114.0 107.0 L 114.0 319.0" fill="none" stroke="#38bdf8" stroke-width="3.0" stroke-linecap="round" stroke-linejoin="round"/><circle cx="420.0" cy="361.0" r="4.0" fill="#38bdf8" stroke="#161619" stroke-width="1.5"/><circle cx="114.0" cy="319.0" r="4.0" fill="#38bdf8" stroke="#161619" stroke-width="1.5"/>
<path d="M 420.0 337.0 L 392.0 337.0 Q 383.0 337.0 383.0 346.0 L 383.0 645.0 Q 383.0 654.0 374.0 654.0 L 99.0 654.0 Q 90.0 654.0 90.0 645.0 L 90.0 446.5" fill="none" stroke="#161619" stroke-width="6.0" stroke-linecap="round" stroke-linejoin="round"/><path d="M 420.0 337.0 L 392.0 337.0 Q 383.0 337.0 383.0 346.0 L 383.0 645.0 Q 383.0 654.0 374.0 654.0 L 99.0 654.0 Q 90.0 654.0 90.0 645.0 L 90.0 446.5" fill="none" stroke="#2dd4bf" stroke-width="3.0" stroke-linecap="round" stroke-linejoin="round"/><circle cx="420.0" cy="337.0" r="4.0" fill="#2dd4bf" stroke="#161619" stroke-width="1.5"/><circle cx="90.0" cy="446.5" r="4.0" fill="#2dd4bf" stroke="#161619" stroke-width="1.5"/>
<path d="M 420.0 169.0 L 380.0 169.0 Q 371.0 169.0 371.0 178.0 L 371.0 663.0 Q 371.0 672.0 362.0 672.0 L 123.0 672.0 Q 114.0 672.0 114.0 663.0 L 114.0 451.0" fill="none" stroke="#161619" stroke-width="6.0" stroke-linecap="round" stroke-linejoin="round"/><path d="M 420.0 169.0 L 380.0 169.0 Q 371.0 169.0 371.0 178.0 L 371.0 663.0 Q 371.0 672.0 362.0 672.0 L 123.0 672.0 Q 114.0 672.0 114.0 663.0 L 114.0 451.0" fill="none" stroke="#fbbf24" stroke-width="3.0" stroke-linecap="round" stroke-linejoin="round"/><circle cx="420.0" cy="169.0" r="4.0" fill="#fbbf24" stroke="#161619" stroke-width="1.5"/><circle cx="114.0" cy="451.0" r="4.0" fill="#fbbf24" stroke="#161619" stroke-width="1.5"/>
<path d="M 420.0 481.0 L 368.0 481.0 Q 359.0 481.0 359.0 490.0 L 359.0 681.0 Q 359.0 690.0 350.0 690.0 L 147.0 690.0 Q 138.0 690.0 138.0 681.0 L 138.0 446.5" fill="none" stroke="#161619" stroke-width="6.0" stroke-linecap="round" stroke-linejoin="round"/><path d="M 420.0 481.0 L 368.0 481.0 Q 359.0 481.0 359.0 490.0 L 359.0 681.0 Q 359.0 690.0 350.0 690.0 L 147.0 690.0 Q 138.0 690.0 138.0 681.0 L 138.0 446.5" fill="none" stroke="#cbd5e1" stroke-width="3.0" stroke-linecap="round" stroke-linejoin="round"/><circle cx="420.0" cy="481.0" r="4.0" fill="#cbd5e1" stroke="#161619" stroke-width="1.5"/><circle cx="138.0" cy="446.5" r="4.0" fill="#cbd5e1" stroke="#161619" stroke-width="1.5"/>
<path d="M 420.0 481.0 L 356.0 481.0 Q 347.0 481.0 347.0 472.0 L 347.0 89.0 Q 347.0 80.0 338.0 80.0 L 147.0 80.0 Q 138.0 80.0 138.0 89.0 L 138.0 323.5" fill="none" stroke="#161619" stroke-width="6.0" stroke-linecap="round" stroke-linejoin="round"/><path d="M 420.0 481.0 L 356.0 481.0 Q 347.0 481.0 347.0 472.0 L 347.0 89.0 Q 347.0 80.0 338.0 80.0 L 147.0 80.0 Q 138.0 80.0 138.0 89.0 L 138.0 323.5" fill="none" stroke="#cbd5e1" stroke-width="3.0" stroke-linecap="round" stroke-linejoin="round"/><circle cx="420.0" cy="481.0" r="4.0" fill="#cbd5e1" stroke="#161619" stroke-width="1.5"/><circle cx="138.0" cy="323.5" r="4.0" fill="#cbd5e1" stroke="#161619" stroke-width="1.5"/>
<g><circle cx="114.0" cy="385.0" r="66.0" fill="#1f6feb" stroke="#134491" stroke-width="1.5" filter="url(#soft)"/><circle cx="114.0" cy="319.0" r="11.0" fill="#161619"/><rect x="91.0" y="364.0" width="46.0" height="42.0" rx="2.5" fill="#16181d" stroke="#0a0c0f" stroke-width="1"/><line x1="88.0" y1="369.2" x2="91.0" y2="369.2" stroke="#9aa0a6" stroke-width="1.4"/><line x1="137.0" y1="369.2" x2="140.0" y2="369.2" stroke="#9aa0a6" stroke-width="1.4"/><line x1="88.0" y1="379.8" x2="91.0" y2="379.8" stroke="#9aa0a6" stroke-width="1.4"/><line x1="137.0" y1="379.8" x2="140.0" y2="379.8" stroke="#9aa0a6" stroke-width="1.4"/><line x1="88.0" y1="390.2" x2="91.0" y2="390.2" stroke="#9aa0a6" stroke-width="1.4"/><line x1="137.0" y1="390.2" x2="140.0" y2="390.2" stroke="#9aa0a6" stroke-width="1.4"/><line x1="88.0" y1="400.8" x2="91.0" y2="400.8" stroke="#9aa0a6" stroke-width="1.4"/><line x1="137.0" y1="400.8" x2="140.0" y2="400.8" stroke="#9aa0a6" stroke-width="1.4"/><circle cx="96.0" cy="369.0" r="1.6" fill="#4b5563"/><circle cx="114.0" cy="402.2" r="4.0" fill="#4b5563"/><g transform="rotate(90 85.0 371.8)"><rect x="77.0" y="368.3" width="16.0" height="7.0" rx="1" fill="#15181d" stroke="#0a0c0f" stroke-width="0.5"/><rect x="77.0" y="368.3" width="2.9" height="7.0" fill="#b8bdc4"/><rect x="90.1" y="368.3" width="2.9" height="7.0" fill="#b8bdc4"/></g><g transform="rotate(90 85.0 385.0)"><rect x="77.0" y="381.5" width="16.0" height="7.0" rx="1" fill="#15181d" stroke="#0a0c0f" stroke-width="0.5"/><rect x="77.0" y="381.5" width="2.9" height="7.0" fill="#b8bdc4"/><rect x="90.1" y="381.5" width="2.9" height="7.0" fill="#b8bdc4"/></g><text x="114.0" y="353.3" text-anchor="middle" font-size="11" font-weight="700" fill="#ffffff">INMP441</text><rect x="87.0" y="319.0" width="6.0" height="9.0" rx="1.5" fill="#d4d4d8" stroke="#71717a" stroke-width="1"/><text x="90.0" y="335.0" text-anchor="middle" font-size="10.5" fill="#f4f4f5">SCK</text><rect x="111.0" y="314.5" width="6.0" height="9.0" rx="1.5" fill="#d4d4d8" stroke="#71717a" stroke-width="1"/><text x="114.0" y="335.0" text-anchor="middle" font-size="10.5" fill="#f4f4f5">WS</text><rect x="135.0" y="319.0" width="6.0" height="9.0" rx="1.5" fill="#d4d4d8" stroke="#71717a" stroke-width="1"/><text x="138.0" y="335.0" text-anchor="middle" font-size="10.5" fill="#f4f4f5">L/R</text><rect x="87.0" y="442.0" width="6.0" height="9.0" rx="1.5" fill="#d4d4d8" stroke="#71717a" stroke-width="1"/><text x="90.0" y="442.0" text-anchor="middle" font-size="10.5" fill="#f4f4f5">SD</text><rect x="111.0" y="446.5" width="6.0" height="9.0" rx="1.5" fill="#d4d4d8" stroke="#71717a" stroke-width="1"/><text x="114.0" y="442.0" text-anchor="middle" font-size="10.5" fill="#f4f4f5">VDD</text><rect x="135.0" y="442.0" width="6.0" height="9.0" rx="1.5" fill="#d4d4d8" stroke="#71717a" stroke-width="1"/><text x="138.0" y="442.0" text-anchor="middle" font-size="10.5" fill="#f4f4f5">GND</text></g>
<g><rect x="420.0" y="132.0" width="150.0" height="506.0" rx="14.0" fill="#1a1a1a" stroke="#101010" stroke-width="1.5" filter="url(#soft)"/><rect x="479.0" y="125.0" width="32" height="10" rx="3" fill="#9ca3af" stroke="#101010"/><rect x="458.0" y="254.8" width="74.0" height="58.0" rx="2.5" fill="#16181d" stroke="#0a0c0f" stroke-width="1"/><line x1="455.0" y1="262.0" x2="458.0" y2="262.0" stroke="#9aa0a6" stroke-width="1.4"/><line x1="532.0" y1="262.0" x2="535.0" y2="262.0" stroke="#9aa0a6" stroke-width="1.4"/><line x1="455.0" y1="276.5" x2="458.0" y2="276.5" stroke="#9aa0a6" stroke-width="1.4"/><line x1="532.0" y1="276.5" x2="535.0" y2="276.5" stroke="#9aa0a6" stroke-width="1.4"/><line x1="455.0" y1="291.0" x2="458.0" y2="291.0" stroke="#9aa0a6" stroke-width="1.4"/><line x1="532.0" y1="291.0" x2="535.0" y2="291.0" stroke="#9aa0a6" stroke-width="1.4"/><line x1="455.0" y1="305.5" x2="458.0" y2="305.5" stroke="#9aa0a6" stroke-width="1.4"/><line x1="532.0" y1="305.5" x2="535.0" y2="305.5" stroke="#9aa0a6" stroke-width="1.4"/><circle cx="463.0" cy="259.8" r="1.6" fill="#4b5563"/><rect x="432.5" y="438.2" width="26.0" height="15.0" rx="2.5" fill="#2b2f36" stroke="#0a0c0f" stroke-width="0.8"/><circle cx="445.5" cy="445.7" r="5.1" fill="#c7ccd1" stroke="#8b9197" stroke-width="1"/><rect x="432.5" y="498.9" width="26.0" height="15.0" rx="2.5" fill="#2b2f36" stroke="#0a0c0f" stroke-width="0.8"/><circle cx="445.5" cy="506.4" r="5.1" fill="#c7ccd1" stroke="#8b9197" stroke-width="1"/><circle cx="465.0" cy="385.0" r="3.0" fill="#4b5563"/><text x="495.0" y="150.0" text-anchor="middle" font-size="9" font-weight="700" fill="#f4f4f5">ESP32-DevKitC V4</text><rect x="415.5" y="166.0" width="9.0" height="6.0" rx="1.5" fill="#d4d4d8" stroke="#71717a" stroke-width="1"/><text x="429.0" y="172.5" text-anchor="start" font-size="10.5" fill="#f4f4f5">3V3</text><rect x="415.5" y="190.0" width="9.0" height="6.0" rx="1.5" fill="#d4d4d8" stroke="#71717a" stroke-width="1"/><text x="429.0" y="196.5" text-anchor="start" font-size="10.5" fill="#f4f4f5">EN</text><rect x="415.5" y="214.0" width="9.0" height="6.0" rx="1.5" fill="#d4d4d8" stroke="#71717a" stroke-width="1"/><text x="429.0" y="220.5" text-anchor="start" font-size="10.5" fill="#f4f4f5">IO36 (VP)</text><rect x="415.5" y="238.0" width="9.0" height="6.0" rx="1.5" fill="#d4d4d8" stroke="#71717a" stroke-width="1"/><text x="429.0" y="244.5" text-anchor="start" font-size="10.5" fill="#f4f4f5">IO39 (VN)</text><rect x="415.5" y="262.0" width="9.0" height="6.0" rx="1.5" fill="#d4d4d8" stroke="#71717a" stroke-width="1"/><text x="429.0" y="268.5" text-anchor="start" font-size="10.5" fill="#f4f4f5">IO34</text><rect x="415.5" y="286.0" width="9.0" height="6.0" rx="1.5" fill="#d4d4d8" stroke="#71717a" stroke-width="1"/><text x="429.0" y="292.5" text-anchor="start" font-size="10.5" fill="#f4f4f5">IO35</text><rect x="415.5" y="310.0" width="9.0" height="6.0" rx="1.5" fill="#d4d4d8" stroke="#71717a" stroke-width="1"/><text x="429.0" y="316.5" text-anchor="start" font-size="10.5" fill="#f4f4f5">IO32</text><rect x="415.5" y="334.0" width="9.0" height="6.0" rx="1.5" fill="#d4d4d8" stroke="#71717a" stroke-width="1"/><text x="429.0" y="340.5" text-anchor="start" font-size="10.5" fill="#f4f4f5">IO33 (DIN)</text><rect x="415.5" y="358.0" width="9.0" height="6.0" rx="1.5" fill="#d4d4d8" stroke="#71717a" stroke-width="1"/><text x="429.0" y="364.5" text-anchor="start" font-size="10.5" fill="#f4f4f5">IO25 (LRCLK)</text><rect x="415.5" y="382.0" width="9.0" height="6.0" rx="1.5" fill="#d4d4d8" stroke="#71717a" stroke-width="1"/><text x="429.0" y="388.5" text-anchor="start" font-size="10.5" fill="#f4f4f5">IO26 (BCLK)</text><rect x="415.5" y="406.0" width="9.0" height="6.0" rx="1.5" fill="#d4d4d8" stroke="#71717a" stroke-width="1"/><text x="429.0" y="412.5" text-anchor="start" font-size="10.5" fill="#f4f4f5">IO27</text><rect x="415.5" y="430.0" width="9.0" height="6.0" rx="1.5" fill="#d4d4d8" stroke="#71717a" stroke-width="1"/><text x="429.0" y="436.5" text-anchor="start" font-size="10.5" fill="#f4f4f5">IO14</text><rect x="415.5" y="454.0" width="9.0" height="6.0" rx="1.5" fill="#d4d4d8" stroke="#71717a" stroke-width="1"/><text x="429.0" y="460.5" text-anchor="start" font-size="10.5" fill="#f4f4f5">IO12</text><rect x="415.5" y="478.0" width="9.0" height="6.0" rx="1.5" fill="#d4d4d8" stroke="#71717a" stroke-width="1"/><text x="429.0" y="484.5" text-anchor="start" font-size="10.5" fill="#f4f4f5">GND</text><rect x="415.5" y="502.0" width="9.0" height="6.0" rx="1.5" fill="#d4d4d8" stroke="#71717a" stroke-width="1"/><text x="429.0" y="508.5" text-anchor="start" font-size="10.5" fill="#f4f4f5">IO13</text><rect x="415.5" y="526.0" width="9.0" height="6.0" rx="1.5" fill="#d4d4d8" stroke="#71717a" stroke-width="1"/><text x="429.0" y="532.5" text-anchor="start" font-size="10.5" fill="#f4f4f5">IO9 (SD2)</text><rect x="415.5" y="550.0" width="9.0" height="6.0" rx="1.5" fill="#d4d4d8" stroke="#71717a" stroke-width="1"/><text x="429.0" y="556.5" text-anchor="start" font-size="10.5" fill="#f4f4f5">IO10 (SD3)</text><rect x="415.5" y="574.0" width="9.0" height="6.0" rx="1.5" fill="#d4d4d8" stroke="#71717a" stroke-width="1"/><text x="429.0" y="580.5" text-anchor="start" font-size="10.5" fill="#f4f4f5">IO11 (CMD)</text><rect x="415.5" y="598.0" width="9.0" height="6.0" rx="1.5" fill="#d4d4d8" stroke="#71717a" stroke-width="1"/><text x="429.0" y="604.5" text-anchor="start" font-size="10.5" fill="#f4f4f5">5V</text><rect x="565.5" y="166.0" width="9.0" height="6.0" rx="1.5" fill="#d4d4d8" stroke="#71717a" stroke-width="1"/><text x="561.0" y="172.5" text-anchor="end" font-size="10.5" fill="#f4f4f5">GND</text><rect x="565.5" y="190.0" width="9.0" height="6.0" rx="1.5" fill="#d4d4d8" stroke="#71717a" stroke-width="1"/><text x="561.0" y="196.5" text-anchor="end" font-size="10.5" fill="#f4f4f5">IO23</text><rect x="565.5" y="214.0" width="9.0" height="6.0" rx="1.5" fill="#d4d4d8" stroke="#71717a" stroke-width="1"/><text x="561.0" y="220.5" text-anchor="end" font-size="10.5" fill="#f4f4f5">IO22</text><rect x="565.5" y="238.0" width="9.0" height="6.0" rx="1.5" fill="#d4d4d8" stroke="#71717a" stroke-width="1"/><text x="561.0" y="244.5" text-anchor="end" font-size="10.5" fill="#f4f4f5">IO1 (TX0)</text><rect x="565.5" y="262.0" width="9.0" height="6.0" rx="1.5" fill="#d4d4d8" stroke="#71717a" stroke-width="1"/><text x="561.0" y="268.5" text-anchor="end" font-size="10.5" fill="#f4f4f5">IO3 (RX0)</text><rect x="565.5" y="286.0" width="9.0" height="6.0" rx="1.5" fill="#d4d4d8" stroke="#71717a" stroke-width="1"/><text x="561.0" y="292.5" text-anchor="end" font-size="10.5" fill="#f4f4f5">IO21</text><rect x="565.5" y="310.0" width="9.0" height="6.0" rx="1.5" fill="#d4d4d8" stroke="#71717a" stroke-width="1"/><text x="561.0" y="316.5" text-anchor="end" font-size="10.5" fill="#f4f4f5">GND</text><rect x="565.5" y="334.0" width="9.0" height="6.0" rx="1.5" fill="#d4d4d8" stroke="#71717a" stroke-width="1"/><text x="561.0" y="340.5" text-anchor="end" font-size="10.5" fill="#f4f4f5">IO19</text><rect x="565.5" y="358.0" width="9.0" height="6.0" rx="1.5" fill="#d4d4d8" stroke="#71717a" stroke-width="1"/><text x="561.0" y="364.5" text-anchor="end" font-size="10.5" fill="#f4f4f5">IO18</text><rect x="565.5" y="382.0" width="9.0" height="6.0" rx="1.5" fill="#d4d4d8" stroke="#71717a" stroke-width="1"/><text x="561.0" y="388.5" text-anchor="end" font-size="10.5" fill="#f4f4f5">IO5</text><rect x="565.5" y="406.0" width="9.0" height="6.0" rx="1.5" fill="#d4d4d8" stroke="#71717a" stroke-width="1"/><text x="561.0" y="412.5" text-anchor="end" font-size="10.5" fill="#f4f4f5">IO17</text><rect x="565.5" y="430.0" width="9.0" height="6.0" rx="1.5" fill="#d4d4d8" stroke="#71717a" stroke-width="1"/><text x="561.0" y="436.5" text-anchor="end" font-size="10.5" fill="#f4f4f5">IO16</text><rect x="565.5" y="454.0" width="9.0" height="6.0" rx="1.5" fill="#d4d4d8" stroke="#71717a" stroke-width="1"/><text x="561.0" y="460.5" text-anchor="end" font-size="10.5" fill="#f4f4f5">IO4</text><rect x="565.5" y="478.0" width="9.0" height="6.0" rx="1.5" fill="#d4d4d8" stroke="#71717a" stroke-width="1"/><text x="561.0" y="484.5" text-anchor="end" font-size="10.5" fill="#f4f4f5">IO0</text><rect x="565.5" y="502.0" width="9.0" height="6.0" rx="1.5" fill="#d4d4d8" stroke="#71717a" stroke-width="1"/><text x="561.0" y="508.5" text-anchor="end" font-size="10.5" fill="#f4f4f5">IO2</text><rect x="565.5" y="526.0" width="9.0" height="6.0" rx="1.5" fill="#d4d4d8" stroke="#71717a" stroke-width="1"/><text x="561.0" y="532.5" text-anchor="end" font-size="10.5" fill="#f4f4f5">IO15</text><rect x="565.5" y="550.0" width="9.0" height="6.0" rx="1.5" fill="#d4d4d8" stroke="#71717a" stroke-width="1"/><text x="561.0" y="556.5" text-anchor="end" font-size="10.5" fill="#f4f4f5">IO8 (SD1)</text><rect x="565.5" y="574.0" width="9.0" height="6.0" rx="1.5" fill="#d4d4d8" stroke="#71717a" stroke-width="1"/><text x="561.0" y="580.5" text-anchor="end" font-size="10.5" fill="#f4f4f5">IO7 (SD0)</text><rect x="565.5" y="598.0" width="9.0" height="6.0" rx="1.5" fill="#d4d4d8" stroke="#71717a" stroke-width="1"/><text x="561.0" y="604.5" text-anchor="end" font-size="10.5" fill="#f4f4f5">IO6 (CLK)</text></g>
<g><rect x="702.0" y="132.0" width="236.0" height="186.0" rx="12.0" fill="#232327" stroke="#3f3f46" stroke-width="1.5" filter="url(#soft)"/><path d="M 702.0 162.0 L 702.0 144.0 Q 702.0 132.0 714.0 132.0 L 926.0 132.0 Q 938.0 132.0 938.0 144.0 L 938.0 162.0 Z" fill="#2f2f35"/><text x="716.0" y="151.0" font-size="12.5" font-weight="700" fill="#f4f4f5">ESP32 ↔ INMP441</text><text x="716.0" y="180.0" font-size="11" fill="#a1a1aa">VDD</text><text x="924.0" y="180.0" text-anchor="end" font-size="11" font-weight="600" fill="#e4e4e7">3V3 — never 5V</text><text x="716.0" y="204.0" font-size="11" fill="#a1a1aa">GND</text><text x="924.0" y="204.0" text-anchor="end" font-size="11" font-weight="600" fill="#e4e4e7">GND</text><text x="716.0" y="228.0" font-size="11" fill="#a1a1aa">L/R</text><text x="924.0" y="228.0" text-anchor="end" font-size="11" font-weight="600" fill="#e4e4e7">GND — selects the left channel</text><text x="716.0" y="252.0" font-size="11" fill="#a1a1aa">SCK</text><text x="924.0" y="252.0" text-anchor="end" font-size="11" font-weight="600" fill="#e4e4e7">IO26 / BCLK (bit clock, output)</text><text x="716.0" y="276.0" font-size="11" fill="#a1a1aa">WS</text><text x="924.0" y="276.0" text-anchor="end" font-size="11" font-weight="600" fill="#e4e4e7">IO25 / LRCLK (word select, output)</text><text x="716.0" y="300.0" font-size="11" fill="#a1a1aa">SD</text><text x="924.0" y="300.0" text-anchor="end" font-size="11" font-weight="600" fill="#e4e4e7">IO33 / DIN (mic data into the ESP32)</text></g>
<g><rect x="702.0" y="342.0" width="236.0" height="201.0" rx="12.0" fill="#232327" stroke="#3f3f46" stroke-width="1.5" filter="url(#soft)"/><path d="M 702.0 372.0 L 702.0 354.0 Q 702.0 342.0 714.0 342.0 L 926.0 342.0 Q 938.0 342.0 938.0 354.0 L 938.0 372.0 Z" fill="#2f2f35"/><text x="716.0" y="361.0" font-size="12.5" font-weight="700" fill="#f4f4f5">Notes</text><text x="716.0" y="390.0" font-size="10.5" fill="#a1a1aa">VDD is 3V3 only — never feed 5V. Tying</text><text x="716.0" y="405.0" font-size="10.5" fill="#a1a1aa">L/R to GND selects the left channel;</text><text x="716.0" y="420.0" font-size="10.5" fill="#a1a1aa">leave it high to select the right</text><text x="716.0" y="435.0" font-size="10.5" fill="#a1a1aa">channel. Keep the I2S run short (a few</text><text x="716.0" y="450.0" font-size="10.5" fill="#a1a1aa">cm).</text><text x="716.0" y="480.0" font-size="10.5" fill="#a1a1aa">The ESP32 captures the mic and publishes</text><text x="716.0" y="495.0" font-size="10.5" fill="#a1a1aa">it on the network as an audio source for</text><text x="716.0" y="510.0" font-size="10.5" fill="#a1a1aa">Frigate; see</text><text x="716.0" y="525.0" font-size="10.5" fill="#a1a1aa">docs/smoke-detection-plan.md.</text></g>
<g><rect x="216.0" y="740.0" width="554" height="34" rx="9" fill="#232327" stroke="#3f3f46" stroke-width="1.5"/><line x1="228.0" y1="758.0" x2="250.0" y2="758.0" stroke="#f472b6" stroke-width="3.5" stroke-linecap="round"/><text x="256.0" y="762.0" font-size="11" fill="#e4e4e7">I2S BCK</text><line x1="340.0" y1="758.0" x2="362.0" y2="758.0" stroke="#38bdf8" stroke-width="3.5" stroke-linecap="round"/><text x="368.0" y="762.0" font-size="11" fill="#e4e4e7">I2S LRCLK</text><line x1="464.0" y1="758.0" x2="486.0" y2="758.0" stroke="#2dd4bf" stroke-width="3.5" stroke-linecap="round"/><text x="492.0" y="762.0" font-size="11" fill="#e4e4e7">I2S Data</text><line x1="582.0" y1="758.0" x2="604.0" y2="758.0" stroke="#fbbf24" stroke-width="3.5" stroke-linecap="round"/><text x="610.0" y="762.0" font-size="11" fill="#e4e4e7">3V3</text><line x1="670.0" y1="758.0" x2="692.0" y2="758.0" stroke="#cbd5e1" stroke-width="3.5" stroke-linecap="round"/><text x="698.0" y="762.0" font-size="11" fill="#e4e4e7">GND</text></g>
</svg>